<svg width="200.000000pt" height="200.000000pt" viewBox="0 0 200.000000 200.000000" xmlns="http://www.w3.org/2000/svg">
  <g transform="translate(0.000000,200.000000) scale(0.100000,-0.100000)" fill="#107533" stroke="none">
    <path d="M920 1994 c-173 -14 -344 -75 -495 -177 -77 -53 -189 -165 -242 -242
-79 -118 -136 -253 -164 -390 -15 -77 -15 -293 0 -370 28 -137 85 -272 164
-390 53 -77 165 -189 242 -242 118 -79 253 -136 390 -164 77 -15 293 -15 370
0 137 28 272 85 390 164 77 53 189 165 242 242 79 118 136 253 164 390 15 77
15 293 0 370 -28 137 -85 272 -164 390 -53 77 -165 189 -242 242 -118 79 -259
139 -385 162 -66 12 -207 20 -270 15z m398 -580 l22 -15 0 -269 0 -269 20 -6
c10 -3 37 -26 58 -50 38 -43 62 -100 62 -145 0 -75 -63 -169 -134 -201 l-41
-19 -50 0 -50 0 -41 19 -41 19 -39 46 -38 46 -171 0 -171 0 -22 16 -22 15 0
399 0 399 22 15 22 16 296 0 296 0 22 -16z" />
    <path d="M696 1374 c-8 -20 -8 -728 0 -748 l6 -16 164 0 164 0 0 38 c0 60 19
111 57 153 20 22 54 49 74 60 l38 19 56 0 55 0 0 239 c0 132 -3 246 -6 255
l-6 16 -298 0 -298 0 -6 -16z m489 -184 l0 -15 -179 -3 -180 -2 -9 9 c-5 5 -6
14 -2 20 l6 11 182 -2 182 -3 0 -15z m-11 -156 c9 -3 16 -12 16 -20 l0 -14
-190 0 -190 0 0 14 c0 8 6 17 13 19 18 8 332 8 351 1z" />
    <path d="M1189 775 c-14 -8 -34 -25 -43 -39 l-16 -25 0 -52 0 -51 21 -29 20
-28 39 -12 38 -12 35 7 c38 7 87 47 87 71 0 23 -28 18 -62 -10 -16 -14 -41
-25 -55 -25 l-25 0 -31 33 -32 32 108 3 107 3 0 30 c0 42 -25 86 -60 104 -36
19 -97 19 -131 0z m124 -57 l32 -33 -84 -3 c-46 -2 -86 0 -90 3 -3 4 9 20 27
36 l32 29 26 0 26 0 31 -32z" />
  </g>
  <g transform="translate(0.000000,200.000000) scale(0.100000,-0.100000)" fill="#fefefe" stroke="none">
    <path d="M0 1000 l0 -1000 1000 0 1000 0 0 1000 0 1000 -1000 0 -1000 0 0
-1000z m1180 969 c126 -23 267 -83 385 -162 77 -53 189 -165 242 -242 80 -118
137 -253 164 -390 6 -33 12 -112 12 -175 0 -166 -30 -293 -101 -435 -51 -103
-107 -181 -187 -260 -79 -80 -157 -136 -260 -187 -142 -71 -269 -101 -435
-101 -166 0 -293 30 -435 101 -103 51 -181 107 -260 187 -80 79 -136 157 -187
260 -71 142 -101 269 -101 435 0 63 6 142 12 175 27 137 84 272 164 390 53 77
165 189 242 242 151 102 324 164 495 176 61 5 183 -2 250 -14z" />
    <path d="M672 1424 l-22 -15 0 -409 0 -409 22 -15 22 -16 171 0 171 0 38 -46
39 -46 44 -20 44 -19 53 0 c28 0 71 7 94 16 l42 17 38 44 c83 93 82 215 0 309
-21 24 -48 47 -58 50 l-20 6 0 269 0 269 -22 15 -22 16 -306 0 -306 0 -22 -16z
m622 -60 c3 -9 6 -118 6 -244 l0 -227 -54 -1 -54 0 -39 -20 c-22 -12 -56 -39
-76 -61 -38 -42 -57 -93 -57 -153 l0 -38 -154 0 -154 0 -6 16 c-8 20 -8 708 0
728 l6 16 288 0 288 0 6 -16z m16 -599 c32 -16 60 -61 60 -95 l0 -20 -105 0
-105 0 0 -16 c0 -8 13 -29 29 -45 l29 -29 35 0 35 0 30 25 c36 30 46 32 33 6
-6 -10 -27 -26 -47 -36 l-36 -17 -36 7 -35 7 -29 30 -28 30 0 44 0 45 16 25
c34 51 99 67 154 39z" />
    <path d="M802 1208 l-11 -11 10 -19 10 -18 189 0 189 0 10 18 10 19 -11 11
-12 12 -186 0 -186 0 -12 -12z" />
    <path d="M806 1035 c-8 -9 -13 -22 -10 -30 l6 -15 198 0 198 0 6 15 c3 8 -2
21 -10 30 l-15 15 -179 0 -179 0 -15 -15z" />
    <path d="M1191 734 c-17 -14 -31 -34 -31 -45 l0 -19 95 0 95 0 0 16 c0 8 -13
29 -29 45 l-29 29 -35 0 -35 0 -31 -26z" />
  </g>
  <g transform="translate(0.000000,200.000000) scale(0.100000,-0.100000)" fill="#e2eee6" stroke="none">
    <path d="M795 1970 l-6 -10 15 6 c18 7 21 14 7 14 -6 0 -13 -4 -16 -10z" />
    <path d="M1180 1976 c0 -2 7 -7 16 -10 l15 -6 -6 10 c-6 10 -25 14 -25 6z" />
    <path d="M715 1950 l-6 -10 15 6 c18 7 21 14 7 14 -6 0 -13 -4 -16 -10z" />
    <path d="M1260 1956 c0 -2 7 -7 16 -10 l15 -6 -6 10 c-6 10 -25 14 -25 6z" />
    <path d="M435 1820 c-3 -5 -2 -10 4 -10 5 0 13 5 16 10 3 6 2 10 -4 10 -5 0
-13 -4 -16 -10z" />
    <path d="M1545 1820 c3 -5 11 -10 16 -10 6 0 7 5 4 10 -3 6 -11 10 -16 10 -6
0 -7 -4 -4 -10z" />
    <path d="M355 1760 c-3 -5 -2 -10 4 -10 5 0 13 5 16 10 3 6 2 10 -4 10 -5 0
-13 -4 -16 -10z" />
    <path d="M1625 1760 c3 -5 11 -10 16 -10 6 0 7 5 4 10 -3 6 -11 10 -16 10 -6
0 -7 -4 -4 -10z" />
    <path d="M237 1643 c-4 -3 -7 -11 -7 -17 l0 -10 12 12 c6 6 9 14 7 17 -3 3 -9
2 -12 -2z" />
    <path d="M1750 1641 c0 -5 5 -13 10 -16 6 -3 10 -2 10 4 0 5 -4 13 -10 16 -5
3 -10 2 -10 -4z" />
    <path d="M177 1563 c-4 -3 -7 -11 -7 -17 l0 -10 12 12 c6 6 9 14 7 17 -3 3 -9
2 -12 -2z" />
    <path d="M1810 1561 c0 -5 5 -13 10 -16 6 -3 10 -2 10 4 0 5 -4 13 -10 16 -5
3 -10 2 -10 -4z" />
    <path d="M655 1000 c0 -217 1 -306 2 -197 2 108 2 286 0 395 -1 108 -2 19 -2
-198z" />
    <path d="M1342 1133 c-1 -144 1 -264 6 -266 4 -3 6 74 4 171 -4 326 -8 359
-10 95z" />
    <path d="M45 1279 c-4 -6 -5 -12 -2 -15 2 -3 7 2 10 11 7 17 1 20 -8 4z" />
    <path d="M1946 1277 c3 -10 9 -15 12 -12 3 3 0 11 -7 18 l-12 12 7 -18z" />
    <path d="M25 1199 c-4 -6 -5 -12 -2 -15 2 -3 7 2 10 11 7 17 1 20 -8 4z" />
    <path d="M1966 1197 c3 -10 9 -15 12 -12 3 3 0 11 -7 18 l-12 12 7 -18z" />
    <path d="M1213 883 c4 -3 10 -3 14 0 3 4 0 7 -7 7 -7 0 -10 -3 -7 -7z" />
    <path d="M1283 883 c4 -3 10 -3 14 0 3 4 0 7 -7 7 -7 0 -10 -3 -7 -7z" />
    <path d="M20 811 c0 -6 4 -13 10 -16 l10 -6 -6 15 c-7 18 -14 21 -14 7z" />
    <path d="M1966 803 l-7 -18 12 12 c7 7 10 15 7 18 -3 3 -9 -2 -12 -12z" />
    <path d="M1465 738 c4 -13 11 -27 16 -33 5 -5 4 5 -2 23 -12 36 -24 44 -14 10z" />
    <path d="M40 731 c0 -6 4 -13 10 -16 l10 -6 -6 15 c-7 18 -14 21 -14 7z" />
    <path d="M1147 733 c-4 -3 -7 -11 -7 -17 l0 -10 12 12 c6 6 9 14 7 17 -3 3 -9
2 -12 -2z" />
    <path d="M1946 723 l-7 -18 12 12 c7 7 10 15 7 18 -3 3 -9 -2 -12 -12z" />
    <path d="M1469 594 c-5 -15 -8 -29 -5 -31 2 -2 8 10 14 26 13 38 5 41 -9 5z" />
    <path d="M1315 560 c-3 -5 -2 -10 4 -10 5 0 13 5 16 10 3 6 2 10 -4 10 -5 0
-13 -4 -16 -10z" />
    <path d="M1056 537 c3 -10 9 -15 12 -12 3 3 0 11 -7 18 l-12 12 7 -18z" />
    <path d="M1227 539 c7 -7 15 -10 18 -7 3 3 -2 9 -12 12 l-18 7 12 -12z" />
    <path d="M1270 540 l-15 -10 12 0 c6 0 15 5 18 10 8 12 4 12 -15 0z" />
    <path d="M170 451 c0 -5 5 -13 10 -16 6 -3 10 -2 10 4 0 5 -4 13 -10 16 -5 3
-10 2 -10 -4z" />
    <path d="M1817 453 c-4 -3 -7 -11 -7 -17 l0 -10 12 12 c6 6 9 14 7 17 -3 3 -9
2 -12 -2z" />
    <path d="M1213 433 c4 -3 10 -3 14 0 3 4 0 7 -7 7 -7 0 -10 -3 -7 -7z" />
    <path d="M230 371 c0 -5 5 -13 10 -16 6 -3 10 -2 10 4 0 5 -4 13 -10 16 -5 3
-10 2 -10 -4z" />
    <path d="M1757 373 c-4 -3 -7 -11 -7 -17 l0 -10 12 12 c6 6 9 14 7 17 -3 3 -9
2 -12 -2z" />
    <path d="M355 240 c3 -5 11 -10 16 -10 6 0 7 5 4 10 -3 6 -11 10 -16 10 -6 0
-7 -4 -4 -10z" />
    <path d="M1625 240 c-3 -5 -2 -10 4 -10 5 0 13 5 16 10 3 6 2 10 -4 10 -5 0
-13 -4 -16 -10z" />
    <path d="M435 180 c3 -5 11 -10 16 -10 6 0 7 5 4 10 -3 6 -11 10 -16 10 -6 0
-7 -4 -4 -10z" />
    <path d="M1545 180 c-3 -5 -2 -10 4 -10 5 0 13 5 16 10 3 6 2 10 -4 10 -5 0
-13 -4 -16 -10z" />
    <path d="M717 49 c7 -7 15 -10 18 -7 3 3 -2 9 -12 12 l-18 7 12 -12z" />
    <path d="M1270 50 l-15 -10 12 0 c6 0 15 5 18 10 8 12 4 12 -15 0z" />
    <path d="M797 29 c7 -7 15 -10 18 -7 3 3 -2 9 -12 12 l-18 7 12 -12z" />
    <path d="M1190 30 l-15 -10 12 0 c6 0 15 5 18 10 8 12 4 12 -15 0z" />
  </g>
  <g transform="translate(0.000000,200.000000) scale(0.100000,-0.100000)" fill="#2c854b" stroke="none">
    <path d="M938 1983 c7 -3 16 -2 19 1 4 3 -2 6 -13 5 l-19 -1 13 -5z" />
    <path d="M1048 1983 c7 -3 16 -2 19 1 4 3 -2 6 -13 5 l-19 -1 13 -5z" />
    <path d="M783 1963 c4 -3 10 -3 14 0 3 4 0 7 -7 7 -7 0 -10 -3 -7 -7z" />
    <path d="M1203 1963 c4 -3 10 -3 14 0 3 4 0 7 -7 7 -7 0 -10 -3 -7 -7z" />
    <path d="M665 1935 c-39 -17 -21 -18 25 0 19 7 28 14 20 14 -8 0 -28 -6 -45
-14z" />
    <path d="M1310 1935 c46 -18 64 -17 25 0 -16 8 -37 14 -45 14 -8 0 1 -7 20
-14z" />
    <path d="M580 1900 l-15 -10 12 0 c6 0 15 5 18 10 8 12 4 12 -15 0z" />
    <path d="M1407 1899 c7 -7 15 -10 18 -7 3 3 -2 9 -12 12 l-18 7 12 -12z" />
    <path d="M520 1870 l-15 -10 12 0 c6 0 15 5 18 10 8 12 4 12 -15 0z" />
    <path d="M1467 1869 c7 -7 15 -10 18 -7 3 3 -2 9 -12 12 l-18 7 12 -12z" />
    <path d="M465 1840 c-3 -5 -2 -10 4 -10 5 0 13 5 16 10 3 6 2 10 -4 10 -5 0
-13 -4 -16 -10z" />
    <path d="M1515 1840 c3 -5 11 -10 16 -10 6 0 7 5 4 10 -3 6 -11 10 -16 10 -6
0 -7 -4 -4 -10z" />
    <path d="M405 1800 c-3 -5 -2 -10 4 -10 5 0 13 5 16 10 3 6 2 10 -4 10 -5 0
-13 -4 -16 -10z" />
    <path d="M1575 1800 c3 -5 11 -10 16 -10 6 0 7 5 4 10 -3 6 -11 10 -16 10 -6
0 -7 -4 -4 -10z" />
    <path d="M360 1760 c-8 -5 -12 -12 -9 -15 4 -3 12 1 19 10 14 17 11 19 -10 5z" />
    <path d="M1620 1766 c0 -2 7 -9 15 -16 l15 -12 0 10 c0 5 -7 12 -15 16 -8 3
-15 4 -15 2z" />
    <path d="M236 1634 l-6 -17 15 13 c17 14 19 20 6 20 -5 0 -12 -7 -15 -16z" />
    <path d="M1740 1646 c0 -2 7 -9 15 -16 l15 -13 -6 17 c-3 9 -10 16 -15 16 -5
0 -9 -2 -9 -4z" />
    <path d="M197 1593 c-4 -3 -7 -11 -7 -17 l0 -10 12 12 c6 6 9 14 7 17 -3 3 -9
2 -12 -2z" />
    <path d="M1790 1591 c0 -5 5 -13 10 -16 6 -3 10 -2 10 4 0 5 -4 13 -10 16 -5
3 -10 2 -10 -4z" />
    <path d="M157 1533 c-4 -3 -7 -11 -7 -17 l0 -10 12 12 c6 6 9 14 7 17 -3 3 -9
2 -12 -2z" />
    <path d="M1830 1531 c0 -5 5 -13 10 -16 6 -3 10 -2 10 4 0 5 -4 13 -10 16 -5
3 -10 2 -10 -4z" />
    <path d="M126 1473 l-7 -18 12 12 c7 7 10 15 7 18 -3 3 -9 -2 -12 -12z" />
    <path d="M1860 1481 c0 -6 4 -13 10 -16 l10 -6 -6 15 c-7 18 -14 21 -14 7z" />
    <path d="M96 1413 l-7 -18 12 12 c7 7 10 15 7 18 -3 3 -9 -2 -12 -12z" />
    <path d="M1890 1421 c0 -6 4 -13 10 -16 l10 -6 -6 15 c-7 18 -14 21 -14 7z" />
    <path d="M61 1329 c-6 -18 -11 -37 -10 -43 0 -6 7 7 15 28 8 22 12 41 10 43
-2 2 -9 -10 -15 -28z" />
    <path d="M1922 1355 c0 -5 6 -26 13 -45 7 -19 14 -28 14 -20 0 8 -6 29 -14 45
-7 17 -13 26 -13 20z" />
    <path d="M30 1210 c0 -7 3 -10 7 -7 3 4 3 10 0 14 -4 3 -7 0 -7 -7z" />
    <path d="M1960 1210 c0 -7 3 -10 7 -7 3 4 3 10 0 14 -4 3 -7 0 -7 -7z" />
    <path d="M807 1169 c7 -7 15 -10 18 -7 3 3 -2 9 -12 12 l-18 7 12 -12z" />
    <path d="M1180 1170 l-15 -10 12 0 c6 0 15 5 18 10 8 12 4 12 -15 0z" />
    <path d="M11 1054 l1 -19 5 13 c3 7 2 16 -1 19 -3 4 -6 -2 -5 -13z" />
    <path d="M1981 1054 l1 -19 5 13 c3 7 2 16 -1 19 -3 4 -6 -2 -5 -13z" />
    <path d="M817 1043 c-3 -5 80 -8 183 -8 103 0 186 3 183 8 -2 4 -85 7 -183 7
-98 0 -181 -3 -183 -7z" />
    <path d="M800 1000 c0 -5 5 -10 11 -10 5 0 7 5 4 10 -3 6 -8 10 -11 10 -2 0
-4 -4 -4 -10z" />
    <path d="M1185 1000 c-3 -5 -1 -10 4 -10 6 0 11 5 11 10 0 6 -2 10 -4 10 -3 0
-8 -4 -11 -10z" />
    <path d="M11 944 l1 -19 5 13 c3 7 2 16 -1 19 -3 4 -6 -2 -5 -13z" />
    <path d="M1981 944 l1 -19 5 13 c3 7 2 16 -1 19 -3 4 -6 -2 -5 -13z" />
    <path d="M1375 850 c3 -5 11 -10 16 -10 6 0 7 5 4 10 -3 6 -11 10 -16 10 -6 0
-7 -4 -4 -10z" />
    <path d="M30 790 c0 -7 3 -10 7 -7 3 4 3 10 0 14 -4 3 -7 0 -7 -7z" />
    <path d="M1960 790 c0 -7 3 -10 7 -7 3 4 3 10 0 14 -4 3 -7 0 -7 -7z" />
    <path d="M1045 769 c-4 -6 -5 -12 -2 -15 2 -3 7 2 10 11 7 17 1 20 -8 4z" />
    <path d="M1215 750 l-6 -10 15 6 c18 7 21 14 7 14 -6 0 -13 -4 -16 -10z" />
    <path d="M1270 756 c0 -2 7 -7 16 -10 l15 -6 -6 10 c-6 10 -25 14 -25 6z" />
    <path d="M1350 734 c0 -6 7 -19 16 -30 l15 -19 -12 25 c-14 31 -19 36 -19 24z" />
    <path d="M51 710 c0 -8 6 -28 14 -45 17 -39 18 -21 0 25 -7 19 -14 28 -14 20z" />
    <path d="M1932 683 c-15 -48 -8 -55 8 -8 7 20 10 38 8 41 -3 2 -10 -13 -16
-33z" />
    <path d="M1132 660 c0 -14 2 -19 5 -12 2 6 2 18 0 25 -3 6 -5 1 -5 -13z" />
    <path d="M96 587 c3 -10 9 -15 12 -12 3 3 0 11 -7 18 l-12 12 7 -18z" />
    <path d="M1895 589 c-4 -6 -5 -12 -2 -15 2 -3 7 2 10 11 7 17 1 20 -8 4z" />
    <path d="M1295 580 c-3 -5 -2 -10 4 -10 5 0 13 5 16 10 3 6 2 10 -4 10 -5 0
-13 -4 -16 -10z" />
    <path d="M1030 566 c0 -2 7 -9 15 -16 l15 -13 -6 17 c-3 9 -10 16 -15 16 -5 0
-9 -2 -9 -4z" />
    <path d="M1283 543 c4 -3 10 -3 14 0 3 4 0 7 -7 7 -7 0 -10 -3 -7 -7z" />
    <path d="M126 527 c3 -10 9 -15 12 -12 3 3 0 11 -7 18 l-12 12 7 -18z" />
    <path d="M1865 529 c-4 -6 -5 -12 -2 -15 2 -3 7 2 10 11 7 17 1 20 -8 4z" />
    <path d="M150 481 c0 -5 5 -13 10 -16 6 -3 10 -2 10 4 0 5 -4 13 -10 16 -5 3
-10 2 -10 -4z" />
    <path d="M1837 483 c-4 -3 -7 -11 -7 -17 l0 -10 12 12 c6 6 9 14 7 17 -3 3 -9
2 -12 -2z" />
    <path d="M1115 470 c3 -5 11 -10 16 -10 6 0 7 5 4 10 -3 6 -11 10 -16 10 -6 0
-7 -4 -4 -10z" />
    <path d="M1375 470 c-3 -5 -2 -10 4 -10 5 0 13 5 16 10 3 6 2 10 -4 10 -5 0
-13 -4 -16 -10z" />
    <path d="M190 421 c0 -5 5 -13 10 -16 6 -3 10 -2 10 4 0 5 -4 13 -10 16 -5 3
-10 2 -10 -4z" />
    <path d="M1797 423 c-4 -3 -7 -11 -7 -17 l0 -10 12 12 c6 6 9 14 7 17 -3 3 -9
2 -12 -2z" />
    <path d="M236 365 c4 -8 11 -15 16 -15 l10 0 -12 15 c-7 8 -14 15 -16 15 -2 0
-1 -7 2 -15z" />
    <path d="M1750 365 l-12 -15 10 0 c5 0 12 7 16 15 3 8 4 15 2 15 -2 0 -9 -7
-16 -15z" />
    <path d="M350 251 c0 -5 7 -12 16 -15 l17 -6 -13 15 c-14 17 -20 19 -20 6z" />
    <path d="M1630 245 l-13 -15 17 6 c9 3 16 10 16 15 0 13 -6 11 -20 -6z" />
    <path d="M405 200 c3 -5 11 -10 16 -10 6 0 7 5 4 10 -3 6 -11 10 -16 10 -6 0
-7 -4 -4 -10z" />
    <path d="M1575 200 c-3 -5 -2 -10 4 -10 5 0 13 5 16 10 3 6 2 10 -4 10 -5 0
-13 -4 -16 -10z" />
    <path d="M465 160 c3 -5 11 -10 16 -10 6 0 7 5 4 10 -3 6 -11 10 -16 10 -6 0
-7 -4 -4 -10z" />
    <path d="M1515 160 c-3 -5 -2 -10 4 -10 5 0 13 5 16 10 3 6 2 10 -4 10 -5 0
-13 -4 -16 -10z" />
    <path d="M510 136 c0 -2 7 -7 16 -10 l15 -6 -6 10 c-6 10 -25 14 -25 6z" />
    <path d="M1465 130 l-6 -10 15 6 c18 7 21 14 7 14 -6 0 -13 -4 -16 -10z" />
    <path d="M570 106 c0 -2 7 -7 16 -10 l15 -6 -6 10 c-6 10 -25 14 -25 6z" />
    <path d="M1405 100 l-6 -10 15 6 c18 7 21 14 7 14 -6 0 -13 -4 -16 -10z" />
    <path d="M665 65 c17 -8 37 -14 45 -14 8 0 -1 7 -20 14 -46 18 -64 17 -25 0z" />
    <path d="M1310 65 c-19 -7 -28 -14 -20 -14 8 0 29 6 45 14 39 17 21 18 -25 0z" />
    <path d="M783 33 c4 -3 10 -3 14 0 3 4 0 7 -7 7 -7 0 -10 -3 -7 -7z" />
    <path d="M1203 33 c4 -3 10 -3 14 0 3 4 0 7 -7 7 -7 0 -10 -3 -7 -7z" />
    <path d="M938 13 c7 -3 16 -2 19 1 4 3 -2 6 -13 5 l-19 -1 13 -5z" />
    <path d="M1048 13 c7 -3 16 -2 19 1 4 3 -2 6 -13 5 l-19 -1 13 -5z" />
  </g>
  <g transform="translate(0.000000,200.000000) scale(0.100000,-0.100000)" fill="#88ba99" stroke="none">
    <path d="M294 1698 l-29 -33 33 29 c30 28 37 36 29 36 -2 0 -16 -15 -33 -32z" />
    <path d="M1670 1727 c0 -2 15 -16 33 -33 l32 -29 -29 33 c-28 30 -36 37 -36
29z" />
    <path d="M705 1379 c-4 -5 -4 -13 -1 -16 3 -4 6 -1 6 5 l0 12 289 0 289 0 5
-10 c3 -6 4 -5 3 2 l-3 13 -291 3 -291 2 -6 -11z" />
    <path d="M1390 846 c0 -2 8 -10 18 -17 l17 -14 -14 18 c-13 16 -21 21 -21 13z" />
    <path d="M1069 803 l-14 -18 18 14 c9 7 17 15 17 17 0 8 -8 3 -21 -13z" />
    <path d="M1455 760 c3 -5 8 -10 11 -10 2 0 4 5 4 10 0 6 -5 10 -11 10 -5 0 -7
-4 -4 -10z" />
    <path d="M1482 660 c0 -14 2 -19 5 -12 2 6 2 18 0 25 -3 6 -5 1 -5 -13z" />
    <path d="M703 630 l4 -15 161 -3 c89 -1 162 1 162 5 0 5 -70 7 -157 5 l-156
-3 -9 13 -10 13 5 -15z" />
    <path d="M1419 503 l-14 -18 18 14 c16 13 21 21 13 21 -2 0 -10 -8 -17 -17z" />
    <path d="M1298 433 c7 -3 16 -2 19 1 4 3 -2 6 -13 5 l-19 -1 13 -5z" />
    <path d="M270 327 c0 -2 15 -16 33 -33 l32 -29 -29 33 c-28 30 -36 37 -36 29z" />
    <path d="M1694 298 l-29 -33 33 29 c30 28 37 36 29 36 -2 0 -16 -15 -33 -32z" />
  </g>
  <g transform="translate(0.000000,200.000000) scale(0.100000,-0.100000)" fill="#79b28d" stroke="none">
    <path d="M898 1983 c7 -3 16 -2 19 1 4 3 -2 6 -13 5 l-19 -1 13 -5z" />
    <path d="M1088 1983 c7 -3 16 -2 19 1 4 3 -2 6 -13 5 l-19 -1 13 -5z" />
    <path d="M693 1943 c4 -3 10 -3 14 0 3 4 0 7 -7 7 -7 0 -10 -3 -7 -7z" />
    <path d="M1293 1943 c4 -3 10 -3 14 0 3 4 0 7 -7 7 -7 0 -10 -3 -7 -7z" />
    <path d="M663 1933 c4 -3 10 -3 14 0 3 4 0 7 -7 7 -7 0 -10 -3 -7 -7z" />
    <path d="M1323 1933 c4 -3 10 -3 14 0 3 4 0 7 -7 7 -7 0 -10 -3 -7 -7z" />
    <path d="M848 1433 c83 -2 221 -2 305 0 83 1 15 3 -153 3 -168 0 -236 -2 -152
-3z" />
    <path d="M665 1420 l-6 -10 15 6 c18 7 21 14 7 14 -6 0 -13 -4 -16 -10z" />
    <path d="M1310 1426 c0 -2 7 -7 16 -10 l15 -6 -6 10 c-6 10 -25 14 -25 6z" />
    <path d="M60 1330 c0 -7 3 -10 7 -7 3 4 3 10 0 14 -4 3 -7 0 -7 -7z" />
    <path d="M1930 1330 c0 -7 3 -10 7 -7 3 4 3 10 0 14 -4 3 -7 0 -7 -7z" />
    <path d="M50 1300 c0 -7 3 -10 7 -7 3 4 3 10 0 14 -4 3 -7 0 -7 -7z" />
    <path d="M1940 1300 c0 -7 3 -10 7 -7 3 4 3 10 0 14 -4 3 -7 0 -7 -7z" />
    <path d="M11 1094 l1 -19 5 13 c3 7 2 16 -1 19 -3 4 -6 -2 -5 -13z" />
    <path d="M1981 1094 l1 -19 5 13 c3 7 2 16 -1 19 -3 4 -6 -2 -5 -13z" />
    <path d="M11 904 l1 -19 5 13 c3 7 2 16 -1 19 -3 4 -6 -2 -5 -13z" />
    <path d="M1981 904 l1 -19 5 13 c3 7 2 16 -1 19 -3 4 -6 -2 -5 -13z" />
    <path d="M50 700 c0 -7 3 -10 7 -7 3 4 3 10 0 14 -4 3 -7 0 -7 -7z" />
    <path d="M1160 695 c0 -8 2 -15 4 -15 2 0 6 7 10 15 3 8 1 15 -4 15 -6 0 -10
-7 -10 -15z" />
    <path d="M1940 700 c0 -7 3 -10 7 -7 3 4 3 10 0 14 -4 3 -7 0 -7 -7z" />
    <path d="M60 670 c0 -7 3 -10 7 -7 3 4 3 10 0 14 -4 3 -7 0 -7 -7z" />
    <path d="M1930 670 c0 -7 3 -10 7 -7 3 4 3 10 0 14 -4 3 -7 0 -7 -7z" />
    <path d="M1480 640 c0 -7 3 -10 7 -7 3 4 3 10 0 14 -4 3 -7 0 -7 -7z" />
    <path d="M1160 631 c0 -6 4 -13 10 -16 l10 -6 -6 15 c-7 18 -14 21 -14 7z" />
    <path d="M1321 598 l-14 -23 24 20 c13 11 26 21 28 22 2 2 -2 3 -10 3 -8 0
-20 -10 -28 -22z" />
    <path d="M1180 596 c0 -2 8 -10 18 -17 l17 -14 -14 18 c-13 16 -21 21 -21 13z" />
    <path d="M667 579 c7 -7 15 -10 18 -7 3 3 -2 9 -12 12 l-18 7 12 -12z" />
    <path d="M1446 544 l-6 -17 15 13 c17 14 19 20 6 20 -5 0 -12 -7 -15 -16z" />
    <path d="M663 63 c4 -3 10 -3 14 0 3 4 0 7 -7 7 -7 0 -10 -3 -7 -7z" />
    <path d="M1323 63 c4 -3 10 -3 14 0 3 4 0 7 -7 7 -7 0 -10 -3 -7 -7z" />
    <path d="M693 53 c4 -3 10 -3 14 0 3 4 0 7 -7 7 -7 0 -10 -3 -7 -7z" />
    <path d="M1293 53 c4 -3 10 -3 14 0 3 4 0 7 -7 7 -7 0 -10 -3 -7 -7z" />
    <path d="M898 13 c7 -3 16 -2 19 1 4 3 -2 6 -13 5 l-19 -1 13 -5z" />
    <path d="M1088 13 c7 -3 16 -2 19 1 4 3 -2 6 -13 5 l-19 -1 13 -5z" />
  </g>
  <g transform="translate(0.000000,200.000000) scale(0.100000,-0.100000)" fill="#6aa980" stroke="none">
    <path d="M480 1850 l-15 -10 12 0 c6 0 15 5 18 10 8 12 4 12 -15 0z" />
    <path d="M1507 1849 c7 -7 15 -10 18 -7 3 3 -2 9 -12 12 l-18 7 12 -12z" />
    <path d="M420 1810 l-15 -10 12 0 c6 0 15 5 18 10 8 12 4 12 -15 0z" />
    <path d="M1567 1809 c7 -7 15 -10 18 -7 3 3 -2 9 -12 12 l-18 7 12 -12z" />
    <path d="M379 1773 l-14 -18 18 14 c9 7 17 15 17 17 0 8 -8 3 -21 -13z" />
    <path d="M1600 1786 c0 -2 8 -10 18 -17 l17 -14 -14 18 c-13 16 -21 21 -21 13z" />
    <path d="M219 1613 l-14 -18 18 14 c9 7 17 15 17 17 0 8 -8 3 -21 -13z" />
    <path d="M1760 1626 c0 -2 8 -10 18 -17 l17 -14 -14 18 c-13 16 -21 21 -21 13z" />
    <path d="M186 1573 l-7 -18 12 12 c7 7 10 15 7 18 -3 3 -9 -2 -12 -12z" />
    <path d="M1800 1581 c0 -6 4 -13 10 -16 l10 -6 -6 15 c-7 18 -14 21 -14 7z" />
    <path d="M146 1513 l-7 -18 12 12 c7 7 10 15 7 18 -3 3 -9 -2 -12 -12z" />
    <path d="M1840 1521 c0 -6 4 -13 10 -16 l10 -6 -6 15 c-7 18 -14 21 -14 7z" />
    <path d="M693 1433 c4 -3 10 -3 14 0 3 4 0 7 -7 7 -7 0 -10 -3 -7 -7z" />
    <path d="M1293 1433 c4 -3 10 -3 14 0 3 4 0 7 -7 7 -7 0 -10 -3 -7 -7z" />
    <path d="M800 1180 c0 -7 3 -10 7 -7 3 4 3 10 0 14 -4 3 -7 0 -7 -7z" />
    <path d="M1190 1180 c0 -7 3 -10 7 -7 3 4 3 10 0 14 -4 3 -7 0 -7 -7z" />
    <path d="M1109 843 l-14 -18 18 14 c9 7 17 15 17 17 0 8 -8 3 -21 -13z" />
    <path d="M1420 816 c0 -2 8 -10 18 -17 l17 -14 -14 18 c-13 16 -21 21 -21 13z" />
    <path d="M1233 753 c4 -3 10 -3 14 0 3 4 0 7 -7 7 -7 0 -10 -3 -7 -7z" />
    <path d="M1263 753 c4 -3 10 -3 14 0 3 4 0 7 -7 7 -7 0 -10 -3 -7 -7z" />
    <path d="M1031 734 l1 -19 5 13 c3 7 2 16 -1 19 -3 4 -6 -2 -5 -13z" />
    <path d="M1300 746 c0 -2 8 -10 18 -17 l17 -14 -14 18 c-13 16 -21 21 -21 13z" />
    <path d="M1139 713 l-14 -18 18 14 c16 13 21 21 13 21 -2 0 -10 -8 -17 -17z" />
    <path d="M1170 715 l-12 -15 10 0 c5 0 12 7 16 15 3 8 4 15 2 15 -2 0 -9 -7
-16 -15z" />
    <path d="M1481 684 l1 -19 5 13 c3 7 2 16 -1 19 -3 4 -6 -2 -5 -13z" />
    <path d="M1366 653 l-7 -18 12 12 c7 7 10 15 7 18 -3 3 -9 -2 -12 -12z" />
    <path d="M1480 630 c0 -7 3 -10 7 -7 3 4 3 10 0 14 -4 3 -7 0 -7 -7z" />
    <path d="M1136 605 c4 -8 11 -15 16 -15 l10 0 -12 15 c-7 8 -14 15 -16 15 -2
0 -1 -7 2 -15z" />
    <path d="M777 563 c51 -2 135 -2 185 0 51 1 10 3 -92 3 -102 0 -143 -2 -93 -3z" />
    <path d="M1293 543 c4 -3 10 -3 14 0 3 4 0 7 -7 7 -7 0 -10 -3 -7 -7z" />
    <path d="M1434 518 l-7 -11 11 7 c12 7 16 16 8 16 -3 0 -8 -5 -12 -12z" />
    <path d="M146 487 c3 -10 9 -15 12 -12 3 3 0 11 -7 18 l-12 12 7 -18z" />
    <path d="M1845 489 c-4 -6 -5 -12 -2 -15 2 -3 7 2 10 11 7 17 1 20 -8 4z" />
    <path d="M186 427 c3 -10 9 -15 12 -12 3 3 0 11 -7 18 l-12 12 7 -18z" />
    <path d="M1805 429 c-4 -6 -5 -12 -2 -15 2 -3 7 2 10 11 7 17 1 20 -8 4z" />
    <path d="M210 396 c0 -2 8 -10 18 -17 l17 -14 -14 18 c-13 16 -21 21 -21 13z" />
    <path d="M1769 383 l-14 -18 18 14 c16 13 21 21 13 21 -2 0 -10 -8 -17 -17z" />
    <path d="M370 236 c0 -2 8 -10 18 -17 l17 -14 -14 18 c-13 16 -21 21 -21 13z" />
    <path d="M1609 223 l-14 -18 18 14 c16 13 21 21 13 21 -2 0 -10 -8 -17 -17z" />
    <path d="M410 196 c0 -2 7 -7 16 -10 l15 -6 -6 10 c-6 10 -25 14 -25 6z" />
    <path d="M1565 190 l-6 -10 15 6 c18 7 21 14 7 14 -6 0 -13 -4 -16 -10z" />
    <path d="M470 156 c0 -2 7 -7 16 -10 l15 -6 -6 10 c-6 10 -25 14 -25 6z" />
    <path d="M1505 150 l-6 -10 15 6 c18 7 21 14 7 14 -6 0 -13 -4 -16 -10z" />
  </g>
  <g transform="translate(0.000000,200.000000) scale(0.100000,-0.100000)" fill="#eff6f1" stroke="none">
    <path d="M863 1983 c4 -3 10 -3 14 0 3 4 0 7 -7 7 -7 0 -10 -3 -7 -7z" />
    <path d="M1123 1983 c4 -3 10 -3 14 0 3 4 0 7 -7 7 -7 0 -10 -3 -7 -7z" />
    <path d="M625 1920 l-6 -10 15 6 c18 7 21 14 7 14 -6 0 -13 -4 -16 -10z" />
    <path d="M1350 1926 c0 -2 7 -7 16 -10 l15 -6 -6 10 c-6 10 -25 14 -25 6z" />
    <path d="M544 1885 c-10 -8 -14 -15 -8 -15 5 0 19 7 30 15 10 8 14 15 8 15 -5
0 -19 -7 -30 -15z" />
    <path d="M1434 1885 c11 -8 25 -15 30 -15 6 0 2 7 -8 15 -11 8 -25 15 -30 15
-6 0 -2 -7 8 -15z" />
    <path d="M464 1838 l-7 -11 11 7 c12 7 16 16 8 16 -3 0 -8 -5 -12 -12z" />
    <path d="M1525 1840 c3 -5 8 -10 11 -10 3 0 2 5 -1 10 -3 6 -8 10 -11 10 -3 0
-2 -4 1 -10z" />
    <path d="M404 1798 l-7 -11 11 7 c12 7 16 16 8 16 -3 0 -8 -5 -12 -12z" />
    <path d="M1585 1800 c3 -5 8 -10 11 -10 3 0 2 5 -1 10 -3 6 -8 10 -11 10 -3 0
-2 -4 1 -10z" />
    <path d="M194 1588 l-7 -11 11 7 c12 7 16 16 8 16 -3 0 -8 -5 -12 -12z" />
    <path d="M1795 1590 c3 -5 8 -10 11 -10 3 0 2 5 -1 10 -3 6 -8 10 -11 10 -3 0
-2 -4 1 -10z" />
    <path d="M154 1528 l-7 -11 11 7 c12 7 16 16 8 16 -3 0 -8 -5 -12 -12z" />
    <path d="M1835 1530 c3 -5 8 -10 11 -10 3 0 2 5 -1 10 -3 6 -8 10 -11 10 -3 0
-2 -4 1 -10z" />
    <path d="M110 1450 c-6 -12 -9 -24 -7 -27 3 -2 11 5 17 17 6 12 9 24 7 27 -3
2 -11 -5 -17 -17z" />
    <path d="M1870 1464 c0 -5 7 -19 15 -30 8 -10 15 -14 15 -8 0 5 -7 19 -15 30
-8 10 -15 14 -15 8z" />
    <path d="M684 1428 l-7 -11 11 7 c12 7 16 16 8 16 -3 0 -8 -5 -12 -12z" />
    <path d="M1305 1430 c3 -5 8 -10 11 -10 3 0 2 5 -1 10 -3 6 -8 10 -11 10 -3 0
-2 -4 1 -10z" />
    <path d="M75 1369 c-4 -6 -5 -12 -2 -15 2 -3 7 2 10 11 7 17 1 20 -8 4z" />
    <path d="M1916 1367 c3 -10 9 -15 12 -12 3 3 0 11 -7 18 l-12 12 7 -18z" />
    <path d="M795 1190 c3 -5 8 -10 11 -10 3 0 2 5 -1 10 -3 6 -8 10 -11 10 -3 0
-2 -4 1 -10z" />
    <path d="M1194 1188 l-7 -11 11 7 c12 7 16 16 8 16 -3 0 -8 -5 -12 -12z" />
    <path d="M10 1130 c0 -7 3 -10 7 -7 3 4 3 10 0 14 -4 3 -7 0 -7 -7z" />
    <path d="M1980 1130 c0 -7 3 -10 7 -7 3 4 3 10 0 14 -4 3 -7 0 -7 -7z" />
    <path d="M796 1024 l-6 -17 15 13 c17 14 19 20 6 20 -5 0 -12 -7 -15 -16z" />
    <path d="M1180 1036 c0 -2 7 -9 15 -16 l15 -13 -6 17 c-3 9 -10 16 -15 16 -5
0 -9 -2 -9 -4z" />
    <path d="M10 870 c0 -7 3 -10 7 -7 3 4 3 10 0 14 -4 3 -7 0 -7 -7z" />
    <path d="M1980 870 c0 -7 3 -10 7 -7 3 4 3 10 0 14 -4 3 -7 0 -7 -7z" />
    <path d="M1377 849 c7 -7 15 -10 18 -7 3 3 -2 9 -12 12 l-18 7 12 -12z" />
    <path d="M1057 793 c-4 -3 -7 -11 -7 -17 l0 -10 12 12 c6 6 9 14 7 17 -3 3 -9
2 -12 -2z" />
    <path d="M1450 770 c0 -5 5 -10 11 -10 5 0 7 5 4 10 -3 6 -8 10 -11 10 -2 0
-4 -4 -4 -10z" />
    <path d="M1026 713 l-7 -18 12 12 c7 7 10 15 7 18 -3 3 -9 -2 -12 -12z" />
    <path d="M1130 700 c0 -7 3 -10 7 -7 3 4 3 10 0 14 -4 3 -7 0 -7 -7z" />
    <path d="M1163 703 c4 -3 10 -3 14 0 3 4 0 7 -7 7 -7 0 -10 -3 -7 -7z" />
    <path d="M70 641 c0 -6 4 -13 10 -16 l10 -6 -6 15 c-7 18 -14 21 -14 7z" />
    <path d="M1916 633 l-7 -18 12 12 c7 7 10 15 7 18 -3 3 -9 -2 -12 -12z" />
    <path d="M1130 620 c0 -7 3 -10 7 -7 3 4 3 10 0 14 -4 3 -7 0 -7 -7z" />
    <path d="M1170 610 c0 -7 3 -10 7 -7 3 4 3 10 0 14 -4 3 -7 0 -7 -7z" />
    <path d="M1330 610 c0 -7 3 -10 7 -7 3 4 3 10 0 14 -4 3 -7 0 -7 -7z" />
    <path d="M1353 605 c0 -8 4 -12 9 -9 5 3 6 10 3 15 -9 13 -12 11 -12 -6z" />
    <path d="M1145 590 c3 -5 8 -10 11 -10 2 0 4 5 4 10 0 6 -5 10 -11 10 -5 0 -7
-4 -4 -10z" />
    <path d="M1295 580 l-6 -10 15 6 c18 7 21 14 7 14 -6 0 -13 -4 -16 -10z" />
    <path d="M100 574 c0 -5 7 -19 15 -30 8 -10 15 -14 15 -8 0 5 -7 19 -15 30 -8
10 -15 14 -15 8z" />
    <path d="M685 570 c3 -5 8 -10 11 -10 3 0 2 5 -1 10 -3 6 -8 10 -11 10 -3 0
-2 -4 1 -10z" />
    <path d="M1880 560 c-6 -12 -9 -24 -7 -27 3 -2 11 5 17 17 6 12 9 24 7 27 -3
2 -11 -5 -17 -17z" />
    <path d="M1455 560 c-3 -5 -1 -10 4 -10 6 0 11 5 11 10 0 6 -2 10 -4 10 -3 0
-8 -4 -11 -10z" />
    <path d="M155 470 c3 -5 8 -10 11 -10 3 0 2 5 -1 10 -3 6 -8 10 -11 10 -3 0
-2 -4 1 -10z" />
    <path d="M1110 476 c0 -2 7 -7 16 -10 l15 -6 -6 10 c-6 10 -25 14 -25 6z" />
    <path d="M1375 470 l-6 -10 15 6 c18 7 21 14 7 14 -6 0 -13 -4 -16 -10z" />
    <path d="M1834 468 l-7 -11 11 7 c12 7 16 16 8 16 -3 0 -8 -5 -12 -12z" />
    <path d="M1170 446 c0 -2 7 -7 16 -10 l15 -6 -6 10 c-6 10 -25 14 -25 6z" />
    <path d="M1315 440 l-6 -10 15 6 c18 7 21 14 7 14 -6 0 -13 -4 -16 -10z" />
    <path d="M1273 433 c4 -3 10 -3 14 0 3 4 0 7 -7 7 -7 0 -10 -3 -7 -7z" />
    <path d="M195 410 c3 -5 8 -10 11 -10 3 0 2 5 -1 10 -3 6 -8 10 -11 10 -3 0
-2 -4 1 -10z" />
    <path d="M1794 408 l-7 -11 11 7 c12 7 16 16 8 16 -3 0 -8 -5 -12 -12z" />
    <path d="M405 200 c3 -5 8 -10 11 -10 3 0 2 5 -1 10 -3 6 -8 10 -11 10 -3 0
-2 -4 1 -10z" />
    <path d="M1584 198 l-7 -11 11 7 c7 4 12 9 12 12 0 8 -9 4 -16 -8z" />
    <path d="M465 160 c3 -5 8 -10 11 -10 3 0 2 5 -1 10 -3 6 -8 10 -11 10 -3 0
-2 -4 1 -10z" />
    <path d="M1524 158 l-7 -11 11 7 c12 7 16 16 8 16 -3 0 -8 -5 -12 -12z" />
    <path d="M544 115 c11 -8 25 -15 30 -15 6 0 2 7 -8 15 -11 8 -25 15 -30 15 -6
0 -2 -7 8 -15z" />
    <path d="M1434 115 c-10 -8 -14 -15 -8 -15 5 0 19 7 30 15 10 8 14 15 8 15 -5
0 -19 -7 -30 -15z" />
    <path d="M627 79 c7 -7 15 -10 18 -7 3 3 -2 9 -12 12 l-18 7 12 -12z" />
    <path d="M1360 80 l-15 -10 12 0 c6 0 15 5 18 10 8 12 4 12 -15 0z" />
    <path d="M863 13 c4 -3 10 -3 14 0 3 4 0 7 -7 7 -7 0 -10 -3 -7 -7z" />
    <path d="M1123 13 c4 -3 10 -3 14 0 3 4 0 7 -7 7 -7 0 -10 -3 -7 -7z" />
  </g>
  <g transform="translate(0.000000,200.000000) scale(0.100000,-0.100000)" fill="#a6ccb3" stroke="none">
    <path d="M593 1903 c4 -3 10 -3 14 0 3 4 0 7 -7 7 -7 0 -10 -3 -7 -7z" />
    <path d="M1393 1903 c4 -3 10 -3 14 0 3 4 0 7 -7 7 -7 0 -10 -3 -7 -7z" />
    <path d="M90 1400 c0 -7 3 -10 7 -7 3 4 3 10 0 14 -4 3 -7 0 -7 -7z" />
    <path d="M651 1394 l1 -19 5 13 c3 7 2 16 -1 19 -3 4 -6 -2 -5 -13z" />
    <path d="M1341 1394 l1 -19 5 13 c3 7 2 16 -1 19 -3 4 -6 -2 -5 -13z" />
    <path d="M1900 1400 c0 -7 3 -10 7 -7 3 4 3 10 0 14 -4 3 -7 0 -7 -7z" />
    <path d="M903 1213 c53 -2 141 -2 195 0 53 1 9 3 -98 3 -107 0 -151 -2 -97 -3z" />
    <path d="M1084 818 l-7 -11 11 7 c12 7 16 16 8 16 -3 0 -8 -5 -12 -12z" />
    <path d="M1248 783 c7 -3 16 -2 19 1 4 3 -2 6 -13 5 l-19 -1 13 -5z" />
    <path d="M1155 739 c-4 -6 -5 -12 -2 -15 2 -3 7 2 10 11 7 17 1 20 -8 4z" />
    <path d="M1184 728 l-7 -11 11 7 c12 7 16 16 8 16 -3 0 -8 -5 -12 -12z" />
    <path d="M1160 643 c0 -5 33 -7 72 -5 132 5 145 9 36 10 -60 1 -108 -1 -108
-5z" />
    <path d="M651 604 l1 -19 5 13 c3 7 2 16 -1 19 -3 4 -6 -2 -5 -13z" />
    <path d="M90 600 c0 -7 3 -10 7 -7 3 4 3 10 0 14 -4 3 -7 0 -7 -7z" />
    <path d="M1900 600 c0 -7 3 -10 7 -7 3 4 3 10 0 14 -4 3 -7 0 -7 -7z" />
    <path d="M1284 568 l-7 -11 11 7 c7 4 12 9 12 12 0 8 -9 4 -16 -8z" />
    <path d="M1080 506 c0 -2 8 -10 18 -17 l17 -14 -14 18 c-13 16 -21 21 -21 13z" />
    <path d="M593 93 c4 -3 10 -3 14 0 3 4 0 7 -7 7 -7 0 -10 -3 -7 -7z" />
    <path d="M1393 93 c4 -3 10 -3 14 0 3 4 0 7 -7 7 -7 0 -10 -3 -7 -7z" />
  </g>
  <g transform="translate(0.000000,200.000000) scale(0.100000,-0.100000)" fill="#1e7d3f" stroke="none">
    <path d="M953 1983 c4 -3 10 -3 14 0 3 4 0 7 -7 7 -7 0 -10 -3 -7 -7z" />
    <path d="M1033 1983 c4 -3 10 -3 14 0 3 4 0 7 -7 7 -7 0 -10 -3 -7 -7z" />
    <path d="M550 1885 c-14 -8 -20 -14 -14 -15 5 0 19 7 30 15 24 18 16 19 -16 0z" />
    <path d="M1434 1886 c11 -9 24 -16 30 -16 12 0 7 5 -24 19 l-25 12 19 -15z" />
    <path d="M440 1820 l-15 -10 12 0 c6 0 15 5 18 10 8 12 4 12 -15 0z" />
    <path d="M1547 1819 c7 -7 15 -10 18 -7 3 3 -2 9 -12 12 l-18 7 12 -12z" />
    <path d="M345 1750 c-3 -5 -1 -10 4 -10 6 0 11 5 11 10 0 6 -2 10 -4 10 -3 0
-8 -4 -11 -10z" />
    <path d="M1640 1750 c0 -5 5 -10 11 -10 5 0 7 5 4 10 -3 6 -8 10 -11 10 -2 0
-4 -4 -4 -10z" />
    <path d="M245 1650 c-3 -5 -1 -10 4 -10 6 0 11 5 11 10 0 6 -2 10 -4 10 -3 0
-8 -4 -11 -10z" />
    <path d="M1740 1650 c0 -5 5 -10 11 -10 5 0 7 5 4 10 -3 6 -8 10 -11 10 -2 0
-4 -4 -4 -10z" />
    <path d="M176 1553 l-7 -18 12 12 c7 7 10 15 7 18 -3 3 -9 -2 -12 -12z" />
    <path d="M1810 1561 c0 -6 4 -13 10 -16 l10 -6 -6 15 c-7 18 -14 21 -14 7z" />
    <path d="M111 1443 l-11 -28 15 19 c8 11 15 23 15 28 0 15 -7 8 -19 -19z" />
    <path d="M1870 1464 c0 -6 7 -19 16 -30 l15 -19 -12 25 c-14 31 -19 36 -19 24z" />
    <path d="M794 1198 l-7 -11 11 7 c7 4 12 9 12 12 0 8 -9 4 -16 -8z" />
    <path d="M1195 1200 c3 -5 8 -10 11 -10 3 0 2 5 -1 10 -3 6 -8 10 -11 10 -3 0
-2 -4 1 -10z" />
    <path d="M10 1040 c0 -7 3 -10 7 -7 3 4 3 10 0 14 -4 3 -7 0 -7 -7z" />
    <path d="M1980 1040 c0 -7 3 -10 7 -7 3 4 3 10 0 14 -4 3 -7 0 -7 -7z" />
    <path d="M795 1010 c3 -5 8 -10 11 -10 3 0 2 5 -1 10 -3 6 -8 10 -11 10 -3 0
-2 -4 1 -10z" />
    <path d="M1194 1008 l-7 -11 11 7 c12 7 16 16 8 16 -3 0 -8 -5 -12 -12z" />
    <path d="M10 960 c0 -7 3 -10 7 -7 3 4 3 10 0 14 -4 3 -7 0 -7 -7z" />
    <path d="M1980 960 c0 -7 3 -10 7 -7 3 4 3 10 0 14 -4 3 -7 0 -7 -7z" />
    <path d="M1243 893 c4 -3 10 -3 14 0 3 4 0 7 -7 7 -7 0 -10 -3 -7 -7z" />
    <path d="M1175 880 l-6 -10 15 6 c18 7 21 14 7 14 -6 0 -13 -4 -16 -10z" />
    <path d="M1055 789 c-4 -6 -5 -12 -2 -15 2 -3 7 2 10 11 7 17 1 20 -8 4z" />
    <path d="M1455 770 c3 -5 8 -10 11 -10 3 0 2 5 -1 10 -3 6 -8 10 -11 10 -3 0
-2 -4 1 -10z" />
    <path d="M1034 748 l-7 -11 11 7 c12 7 16 16 8 16 -3 0 -8 -5 -12 -12z" />
    <path d="M1480 700 c0 -7 3 -10 7 -7 3 4 3 10 0 14 -4 3 -7 0 -7 -7z" />
    <path d="M1480 620 c0 -7 3 -10 7 -7 3 4 3 10 0 14 -4 3 -7 0 -7 -7z" />
    <path d="M1150 590 c0 -7 3 -10 7 -7 3 4 3 10 0 14 -4 3 -7 0 -7 -7z" />
    <path d="M111 560 c14 -31 19 -36 19 -24 0 6 -7 19 -16 30 l-15 19 12 -25z" />
    <path d="M1217 569 c7 -7 15 -10 18 -7 3 3 -2 9 -12 12 l-18 7 12 -12z" />
    <path d="M1880 559 c-7 -11 -10 -23 -7 -25 2 -2 9 7 15 21 14 30 7 33 -8 4z" />
    <path d="M1273 563 c4 -3 10 -3 14 0 3 4 0 7 -7 7 -7 0 -10 -3 -7 -7z" />
    <path d="M1315 560 l-6 -10 15 6 c18 7 21 14 7 14 -6 0 -13 -4 -16 -10z" />
    <path d="M1460 560 c0 -7 3 -10 7 -7 3 4 3 10 0 14 -4 3 -7 0 -7 -7z" />
    <path d="M1213 543 c4 -3 10 -3 14 0 3 4 0 7 -7 7 -7 0 -10 -3 -7 -7z" />
    <path d="M176 447 c3 -10 9 -15 12 -12 3 3 0 11 -7 18 l-12 12 7 -18z" />
    <path d="M1815 449 c-4 -6 -5 -12 -2 -15 2 -3 7 2 10 11 7 17 1 20 -8 4z" />
    <path d="M245 350 c3 -5 8 -10 11 -10 2 0 4 5 4 10 0 6 -5 10 -11 10 -5 0 -7
-4 -4 -10z" />
    <path d="M1740 349 c0 -5 5 -7 10 -4 6 3 10 8 10 11 0 2 -4 4 -10 4 -5 0 -10
-5 -10 -11z" />
    <path d="M345 250 c3 -5 8 -10 11 -10 2 0 4 5 4 10 0 6 -5 10 -11 10 -5 0 -7
-4 -4 -10z" />
    <path d="M1640 249 c0 -5 5 -7 10 -4 6 3 10 8 10 11 0 2 -4 4 -10 4 -5 0 -10
-5 -10 -11z" />
    <path d="M430 186 c0 -2 7 -7 16 -10 l15 -6 -6 10 c-6 10 -25 14 -25 6z" />
    <path d="M1545 180 l-6 -10 15 6 c18 7 21 14 7 14 -6 0 -13 -4 -16 -10z" />
    <path d="M531 126 c2 -2 15 -9 29 -15 l25 -12 -19 15 c-11 9 -24 16 -30 16 -5
0 -7 -2 -5 -4z" />
    <path d="M1434 114 l-19 -15 25 12 c31 14 36 19 24 19 -6 0 -19 -7 -30 -16z" />
    <path d="M953 13 c4 -3 10 -3 14 0 3 4 0 7 -7 7 -7 0 -10 -3 -7 -7z" />
    <path d="M1033 13 c4 -3 10 -3 14 0 3 4 0 7 -7 7 -7 0 -10 -3 -7 -7z" />
  </g>
  <g transform="translate(0.000000,200.000000) scale(0.100000,-0.100000)" fill="#90bfa1" stroke="none">
    <path d="M883 1983 c4 -3 10 -3 14 0 3 4 0 7 -7 7 -7 0 -10 -3 -7 -7z" />
    <path d="M1103 1983 c4 -3 10 -3 14 0 3 4 0 7 -7 7 -7 0 -10 -3 -7 -7z" />
    <path d="M818 1973 c7 -3 16 -2 19 1 4 3 -2 6 -13 5 l-19 -1 13 -5z" />
    <path d="M1168 1973 c7 -3 16 -2 19 1 4 3 -2 6 -13 5 l-19 -1 13 -5z" />
    <path d="M324 1728 l-7 -11 11 7 c12 7 16 16 8 16 -3 0 -8 -5 -12 -12z" />
    <path d="M1665 1730 c3 -5 8 -10 11 -10 3 0 2 5 -1 10 -3 6 -8 10 -11 10 -3 0
-2 -4 1 -10z" />
    <path d="M264 1668 l-7 -11 11 7 c12 7 16 16 8 16 -3 0 -8 -5 -12 -12z" />
    <path d="M1725 1670 c3 -5 8 -10 11 -10 3 0 2 5 -1 10 -3 6 -8 10 -11 10 -3 0
-2 -4 1 -10z" />
    <path d="M654 1408 l-7 -11 11 7 c12 7 16 16 8 16 -3 0 -8 -5 -12 -12z" />
    <path d="M1335 1410 c3 -5 8 -10 11 -10 3 0 2 5 -1 10 -3 6 -8 10 -11 10 -3 0
-2 -4 1 -10z" />
    <path d="M21 1174 l1 -19 5 13 c3 7 2 16 -1 19 -3 4 -6 -2 -5 -13z" />
    <path d="M1971 1174 l1 -19 5 13 c3 7 2 16 -1 19 -3 4 -6 -2 -5 -13z" />
    <path d="M10 1110 c0 -7 3 -10 7 -7 3 4 3 10 0 14 -4 3 -7 0 -7 -7z" />
    <path d="M1980 1110 c0 -7 3 -10 7 -7 3 4 3 10 0 14 -4 3 -7 0 -7 -7z" />
    <path d="M10 890 c0 -7 3 -10 7 -7 3 4 3 10 0 14 -4 3 -7 0 -7 -7z" />
    <path d="M1980 890 c0 -7 3 -10 7 -7 3 4 3 10 0 14 -4 3 -7 0 -7 -7z" />
    <path d="M21 824 l1 -19 5 13 c3 7 2 16 -1 19 -3 4 -6 -2 -5 -13z" />
    <path d="M1971 824 l1 -19 5 13 c3 7 2 16 -1 19 -3 4 -6 -2 -5 -13z" />
    <path d="M1415 820 c3 -5 8 -10 11 -10 3 0 2 5 -1 10 -3 6 -8 10 -11 10 -3 0
-2 -4 1 -10z" />
    <path d="M1169 753 l-14 -18 18 14 c9 7 17 15 17 17 0 8 -8 3 -21 -13z" />
    <path d="M1248 753 c7 -3 16 -2 19 1 4 3 -2 6 -13 5 l-19 -1 13 -5z" />
    <path d="M1194 738 l-7 -11 11 7 c12 7 16 16 8 16 -3 0 -8 -5 -12 -12z" />
    <path d="M1160 680 c0 -5 5 -10 11 -10 5 0 7 5 4 10 -3 6 -8 10 -11 10 -2 0
-4 -4 -4 -10z" />
    <path d="M1175 600 c3 -5 8 -10 11 -10 3 0 2 5 -1 10 -3 6 -8 10 -11 10 -3 0
-2 -4 1 -10z" />
    <path d="M655 590 c3 -5 8 -10 11 -10 3 0 2 5 -1 10 -3 6 -8 10 -11 10 -3 0
-2 -4 1 -10z" />
    <path d="M1248 563 c7 -3 16 -2 19 1 4 3 -2 6 -13 5 l-19 -1 13 -5z" />
    <path d="M1198 433 c7 -3 16 -2 19 1 4 3 -2 6 -13 5 l-19 -1 13 -5z" />
    <path d="M265 330 c3 -5 8 -10 11 -10 3 0 2 5 -1 10 -3 6 -8 10 -11 10 -3 0
-2 -4 1 -10z" />
    <path d="M1724 328 l-7 -11 11 7 c12 7 16 16 8 16 -3 0 -8 -5 -12 -12z" />
    <path d="M325 270 c3 -5 8 -10 11 -10 3 0 2 5 -1 10 -3 6 -8 10 -11 10 -3 0
-2 -4 1 -10z" />
    <path d="M1664 268 l-7 -11 11 7 c7 4 12 9 12 12 0 8 -9 4 -16 -8z" />
    <path d="M818 23 c7 -3 16 -2 19 1 4 3 -2 6 -13 5 l-19 -1 13 -5z" />
    <path d="M1168 23 c7 -3 16 -2 19 1 4 3 -2 6 -13 5 l-19 -1 13 -5z" />
    <path d="M883 13 c4 -3 10 -3 14 0 3 4 0 7 -7 7 -7 0 -10 -3 -7 -7z" />
    <path d="M1103 13 c4 -3 10 -3 14 0 3 4 0 7 -7 7 -7 0 -10 -3 -7 -7z" />
  </g>
  <g transform="translate(0.000000,200.000000) scale(0.100000,-0.100000)" fill="#c4ddcd" stroke="none">
    <path d="M903 993 c53 -2 141 -2 195 0 53 1 9 3 -98 3 -107 0 -151 -2 -97 -3z" />
    <path d="M1203 883 c4 -3 10 -3 14 0 3 4 0 7 -7 7 -7 0 -10 -3 -7 -7z" />
    <path d="M1130 860 l-15 -10 12 0 c6 0 15 5 18 10 8 12 4 12 -15 0z" />
    <path d="M1183 763 c4 -3 10 -3 14 0 3 4 0 7 -7 7 -7 0 -10 -3 -7 -7z" />
    <path d="M1203 743 c4 -3 10 -3 14 0 3 4 0 7 -7 7 -7 0 -10 -3 -7 -7z" />
    <path d="M1345 740 c3 -5 8 -10 11 -10 3 0 2 5 -1 10 -3 6 -8 10 -11 10 -3 0
-2 -4 1 -10z" />
    <path d="M1370 690 c0 -7 3 -10 7 -7 3 4 3 10 0 14 -4 3 -7 0 -7 -7z" />
    <path d="M1165 680 c3 -5 8 -10 11 -10 3 0 2 5 -1 10 -3 6 -8 10 -11 10 -3 0
-2 -4 1 -10z" />
    <path d="M1160 640 c0 -7 3 -10 7 -7 3 4 3 10 0 14 -4 3 -7 0 -7 -7z" />
    <path d="M1253 533 c4 -3 10 -3 14 0 3 4 0 7 -7 7 -7 0 -10 -3 -7 -7z" />
    <path d="M1345 450 l-6 -10 15 6 c18 7 21 14 7 14 -6 0 -13 -4 -16 -10z" />
  </g>
  <g transform="translate(0.000000,200.000000) scale(0.100000,-0.100000)" fill="#96c2a5" stroke="none">
    <path d="M768 1963 c7 -3 16 -2 19 1 4 3 -2 6 -13 5 l-19 -1 13 -5z" />
    <path d="M1218 1963 c7 -3 16 -2 19 1 4 3 -2 6 -13 5 l-19 -1 13 -5z" />
    <path d="M733 1953 c4 -3 10 -3 14 0 3 4 0 7 -7 7 -7 0 -10 -3 -7 -7z" />
    <path d="M1253 1953 c4 -3 10 -3 14 0 3 4 0 7 -7 7 -7 0 -10 -3 -7 -7z" />
    <path d="M40 1260 c0 -7 3 -10 7 -7 3 4 3 10 0 14 -4 3 -7 0 -7 -7z" />
    <path d="M1950 1260 c0 -7 3 -10 7 -7 3 4 3 10 0 14 -4 3 -7 0 -7 -7z" />
    <path d="M31 1224 l1 -19 5 13 c3 7 2 16 -1 19 -3 4 -6 -2 -5 -13z" />
    <path d="M1961 1224 l1 -19 5 13 c3 7 2 16 -1 19 -3 4 -6 -2 -5 -13z" />
    <path d="M1193 883 c4 -3 10 -3 14 0 3 4 0 7 -7 7 -7 0 -10 -3 -7 -7z" />
    <path d="M31 774 l1 -19 5 13 c3 7 2 16 -1 19 -3 4 -6 -2 -5 -13z" />
    <path d="M1961 774 l1 -19 5 13 c3 7 2 16 -1 19 -3 4 -6 -2 -5 -13z" />
    <path d="M40 740 c0 -7 3 -10 7 -7 3 4 3 10 0 14 -4 3 -7 0 -7 -7z" />
    <path d="M1950 740 c0 -7 3 -10 7 -7 3 4 3 10 0 14 -4 3 -7 0 -7 -7z" />
    <path d="M1022 660 c0 -19 2 -27 5 -17 2 9 2 25 0 35 -3 9 -5 1 -5 -18z" />
    <path d="M1255 680 l-90 -6 93 -2 92 -2 0 10 c0 6 -1 9 -2 8 -2 -1 -43 -5 -93
-8z" />
    <path d="M1470 590 c0 -7 3 -10 7 -7 3 4 3 10 0 14 -4 3 -7 0 -7 -7z" />
    <path d="M1150 586 c0 -2 8 -10 18 -17 l17 -14 -14 18 c-13 16 -21 21 -21 13z" />
    <path d="M1404 488 l-7 -11 11 7 c12 7 16 16 8 16 -3 0 -8 -5 -12 -12z" />
    <path d="M1105 480 c3 -5 8 -10 11 -10 3 0 2 5 -1 10 -3 6 -8 10 -11 10 -3 0
-2 -4 1 -10z" />
    <path d="M733 43 c4 -3 10 -3 14 0 3 4 0 7 -7 7 -7 0 -10 -3 -7 -7z" />
    <path d="M1253 43 c4 -3 10 -3 14 0 3 4 0 7 -7 7 -7 0 -10 -3 -7 -7z" />
    <path d="M768 33 c7 -3 16 -2 19 1 4 3 -2 6 -13 5 l-19 -1 13 -5z" />
    <path d="M1218 33 c7 -3 16 -2 19 1 4 3 -2 6 -13 5 l-19 -1 13 -5z" />
  </g>
  <g transform="translate(0.000000,200.000000) scale(0.100000,-0.100000)" fill="#4c9866" stroke="none">
    <path d="M907 1163 c51 -2 135 -2 185 0 51 1 10 3 -92 3 -102 0 -143 -2 -93
-3z" />
    <path d="M1307 769 c7 -7 15 -10 18 -7 3 3 -2 9 -12 12 l-18 7 12 -12z" />
    <path d="M1326 717 c3 -10 9 -15 12 -12 3 3 0 11 -7 18 l-12 12 7 -18z" />
    <path d="M1370 670 c0 -7 3 -10 7 -7 3 4 3 10 0 14 -4 3 -7 0 -7 -7z" />
    <path d="M1180 556 c0 -2 7 -7 16 -10 l15 -6 -6 10 c-6 10 -25 14 -25 6z" />
    <path d="M1065 520 c3 -5 8 -10 11 -10 3 0 2 5 -1 10 -3 6 -8 10 -11 10 -3 0
-2 -4 1 -10z" />
    <path d="M1364 458 l-7 -11 11 7 c12 7 16 16 8 16 -3 0 -8 -5 -12 -12z" />
    <path d="M1157 449 c7 -7 15 -10 18 -7 3 3 -2 9 -12 12 l-18 7 12 -12z" />
  </g>
  <g transform="translate(0.000000,200.000000) scale(0.100000,-0.100000)" fill="#b0d2bc" stroke="none">
    <path d="M873 1983 c4 -3 10 -3 14 0 3 4 0 7 -7 7 -7 0 -10 -3 -7 -7z" />
    <path d="M1113 1983 c4 -3 10 -3 14 0 3 4 0 7 -7 7 -7 0 -10 -3 -7 -7z" />
    <path d="M504 1858 l-7 -11 11 7 c12 7 16 16 8 16 -3 0 -8 -5 -12 -12z" />
    <path d="M1485 1860 c3 -5 8 -10 11 -10 3 0 2 5 -1 10 -3 6 -8 10 -11 10 -3 0
-2 -4 1 -10z" />
    <path d="M454 1828 l-7 -11 11 7 c12 7 16 16 8 16 -3 0 -8 -5 -12 -12z" />
    <path d="M1535 1830 c3 -5 8 -10 11 -10 3 0 2 5 -1 10 -3 6 -8 10 -11 10 -3 0
-2 -4 1 -10z" />
    <path d="M164 1538 l-7 -11 11 7 c12 7 16 16 8 16 -3 0 -8 -5 -12 -12z" />
    <path d="M1825 1540 c3 -5 8 -10 11 -10 3 0 2 5 -1 10 -3 6 -8 10 -11 10 -3 0
-2 -4 1 -10z" />
    <path d="M134 1488 l-7 -11 11 7 c12 7 16 16 8 16 -3 0 -8 -5 -12 -12z" />
    <path d="M1855 1490 c3 -5 8 -10 11 -10 3 0 2 5 -1 10 -3 6 -8 10 -11 10 -3 0
-2 -4 1 -10z" />
    <path d="M10 1120 c0 -7 3 -10 7 -7 3 4 3 10 0 14 -4 3 -7 0 -7 -7z" />
    <path d="M1980 1120 c0 -7 3 -10 7 -7 3 4 3 10 0 14 -4 3 -7 0 -7 -7z" />
    <path d="M10 880 c0 -7 3 -10 7 -7 3 4 3 10 0 14 -4 3 -7 0 -7 -7z" />
    <path d="M1980 880 c0 -7 3 -10 7 -7 3 4 3 10 0 14 -4 3 -7 0 -7 -7z" />
    <path d="M1163 873 c4 -3 10 -3 14 0 3 4 0 7 -7 7 -7 0 -10 -3 -7 -7z" />
    <path d="M1365 860 c3 -5 8 -10 11 -10 3 0 2 5 -1 10 -3 6 -8 10 -11 10 -3 0
-2 -4 1 -10z" />
    <path d="M1094 828 l-7 -11 11 7 c12 7 16 16 8 16 -3 0 -8 -5 -12 -12z" />
    <path d="M1233 783 c4 -3 10 -3 14 0 3 4 0 7 -7 7 -7 0 -10 -3 -7 -7z" />
    <path d="M1263 783 c4 -3 10 -3 14 0 3 4 0 7 -7 7 -7 0 -10 -3 -7 -7z" />
    <path d="M1195 770 l-6 -10 15 6 c18 7 21 14 7 14 -6 0 -13 -4 -16 -10z" />
    <path d="M1320 766 c0 -2 8 -10 18 -17 l17 -14 -14 18 c-13 16 -21 21 -21 13z" />
    <path d="M1293 743 c4 -3 10 -3 14 0 3 4 0 7 -7 7 -7 0 -10 -3 -7 -7z" />
    <path d="M1339 573 l-14 -18 18 14 c16 13 21 21 13 21 -2 0 -10 -8 -17 -17z" />
    <path d="M1203 573 c4 -3 10 -3 14 0 3 4 0 7 -7 7 -7 0 -10 -3 -7 -7z" />
    <path d="M135 510 c3 -5 8 -10 11 -10 3 0 2 5 -1 10 -3 6 -8 10 -11 10 -3 0
-2 -4 1 -10z" />
    <path d="M1854 508 l-7 -11 11 7 c12 7 16 16 8 16 -3 0 -8 -5 -12 -12z" />
    <path d="M165 460 c3 -5 8 -10 11 -10 3 0 2 5 -1 10 -3 6 -8 10 -11 10 -3 0
-2 -4 1 -10z" />
    <path d="M1824 458 l-7 -11 11 7 c12 7 16 16 8 16 -3 0 -8 -5 -12 -12z" />
    <path d="M1283 433 c4 -3 10 -3 14 0 3 4 0 7 -7 7 -7 0 -10 -3 -7 -7z" />
    <path d="M455 170 c3 -5 8 -10 11 -10 3 0 2 5 -1 10 -3 6 -8 10 -11 10 -3 0
-2 -4 1 -10z" />
    <path d="M1534 168 l-7 -11 11 7 c7 4 12 9 12 12 0 8 -9 4 -16 -8z" />
    <path d="M505 140 c3 -5 8 -10 11 -10 3 0 2 5 -1 10 -3 6 -8 10 -11 10 -3 0
-2 -4 1 -10z" />
    <path d="M1484 138 l-7 -11 11 7 c7 4 12 9 12 12 0 8 -9 4 -16 -8z" />
    <path d="M873 13 c4 -3 10 -3 14 0 3 4 0 7 -7 7 -7 0 -10 -3 -7 -7z" />
    <path d="M1113 13 c4 -3 10 -3 14 0 3 4 0 7 -7 7 -7 0 -10 -3 -7 -7z" />
  </g>
  <g transform="translate(0.000000,200.000000) scale(0.100000,-0.100000)" fill="#cee3d5" stroke="none">
    <path d="M493 1853 c4 -3 10 -3 14 0 3 4 0 7 -7 7 -7 0 -10 -3 -7 -7z" />
    <path d="M1493 1853 c4 -3 10 -3 14 0 3 4 0 7 -7 7 -7 0 -10 -3 -7 -7z" />
    <path d="M394 1788 l-7 -11 11 7 c12 7 16 16 8 16 -3 0 -8 -5 -12 -12z" />
    <path d="M1595 1790 c3 -5 8 -10 11 -10 3 0 2 5 -1 10 -3 6 -8 10 -11 10 -3 0
-2 -4 1 -10z" />
    <path d="M204 1598 l-7 -11 11 7 c12 7 16 16 8 16 -3 0 -8 -5 -12 -12z" />
    <path d="M1785 1600 c3 -5 8 -10 11 -10 3 0 2 5 -1 10 -3 6 -8 10 -11 10 -3 0
-2 -4 1 -10z" />
    <path d="M140 1500 c0 -7 3 -10 7 -7 3 4 3 10 0 14 -4 3 -7 0 -7 -7z" />
    <path d="M1850 1500 c0 -7 3 -10 7 -7 3 4 3 10 0 14 -4 3 -7 0 -7 -7z" />
    <path d="M805 1000 c3 -5 8 -10 11 -10 3 0 2 5 -1 10 -3 6 -8 10 -11 10 -3 0
-2 -4 1 -10z" />
    <path d="M1184 998 l-7 -11 11 7 c12 7 16 16 8 16 -3 0 -8 -5 -12 -12z" />
    <path d="M1353 863 c4 -3 10 -3 14 0 3 4 0 7 -7 7 -7 0 -10 -3 -7 -7z" />
    <path d="M1350 590 c0 -7 3 -10 7 -7 3 4 3 10 0 14 -4 3 -7 0 -7 -7z" />
    <path d="M1304 548 l-7 -11 11 7 c12 7 16 16 8 16 -3 0 -8 -5 -12 -12z" />
    <path d="M140 500 c0 -7 3 -10 7 -7 3 4 3 10 0 14 -4 3 -7 0 -7 -7z" />
    <path d="M1850 500 c0 -7 3 -10 7 -7 3 4 3 10 0 14 -4 3 -7 0 -7 -7z" />
    <path d="M205 400 c3 -5 8 -10 11 -10 3 0 2 5 -1 10 -3 6 -8 10 -11 10 -3 0
-2 -4 1 -10z" />
    <path d="M1784 398 l-7 -11 11 7 c12 7 16 16 8 16 -3 0 -8 -5 -12 -12z" />
    <path d="M395 210 c3 -5 8 -10 11 -10 3 0 2 5 -1 10 -3 6 -8 10 -11 10 -3 0
-2 -4 1 -10z" />
    <path d="M1594 208 l-7 -11 11 7 c12 7 16 16 8 16 -3 0 -8 -5 -12 -12z" />
    <path d="M493 143 c4 -3 10 -3 14 0 3 4 0 7 -7 7 -7 0 -10 -3 -7 -7z" />
    <path d="M1493 143 c4 -3 10 -3 14 0 3 4 0 7 -7 7 -7 0 -10 -3 -7 -7z" />
  </g>
  <g transform="translate(0.000000,200.000000) scale(0.100000,-0.100000)" fill="#bbd7c5" stroke="none">
    <path d="M605 1910 l-6 -10 15 6 c18 7 21 14 7 14 -6 0 -13 -4 -16 -10z" />
    <path d="M1370 1916 c0 -2 7 -7 16 -10 l15 -6 -6 10 c-6 10 -25 14 -25 6z" />
    <path d="M339 1743 l-14 -18 18 14 c9 7 17 15 17 17 0 8 -8 3 -21 -13z" />
    <path d="M1640 1756 c0 -2 8 -10 18 -17 l17 -14 -14 18 c-13 16 -21 21 -21 13z" />
    <path d="M249 1653 l-14 -18 18 14 c9 7 17 15 17 17 0 8 -8 3 -21 -13z" />
    <path d="M1730 1666 c0 -2 8 -10 18 -17 l17 -14 -14 18 c-13 16 -21 21 -21 13z" />
    <path d="M85 1389 c-4 -6 -5 -12 -2 -15 2 -3 7 2 10 11 7 17 1 20 -8 4z" />
    <path d="M1906 1387 c3 -10 9 -15 12 -12 3 3 0 11 -7 18 l-12 12 7 -18z" />
    <path d="M804 1208 l-7 -11 11 7 c7 4 12 9 12 12 0 8 -9 4 -16 -8z" />
    <path d="M1185 1210 c3 -5 8 -10 11 -10 3 0 2 5 -1 10 -3 6 -8 10 -11 10 -3 0
-2 -4 1 -10z" />
    <path d="M1293 773 c4 -3 10 -3 14 0 3 4 0 7 -7 7 -7 0 -10 -3 -7 -7z" />
    <path d="M80 621 c0 -6 4 -13 10 -16 l10 -6 -6 15 c-7 18 -14 21 -14 7z" />
    <path d="M1906 613 l-7 -18 12 12 c7 7 10 15 7 18 -3 3 -9 -2 -12 -12z" />
    <path d="M1203 543 c4 -3 10 -3 14 0 3 4 0 7 -7 7 -7 0 -10 -3 -7 -7z" />
    <path d="M1243 533 c4 -3 10 -3 14 0 3 4 0 7 -7 7 -7 0 -10 -3 -7 -7z" />
    <path d="M1135 460 c3 -5 8 -10 11 -10 3 0 2 5 -1 10 -3 6 -8 10 -11 10 -3 0
-2 -4 1 -10z" />
    <path d="M240 356 c0 -2 8 -10 18 -17 l17 -14 -14 18 c-13 16 -21 21 -21 13z" />
    <path d="M1739 343 l-14 -18 18 14 c16 13 21 21 13 21 -2 0 -10 -8 -17 -17z" />
    <path d="M330 266 c0 -2 8 -10 18 -17 l17 -14 -14 18 c-13 16 -21 21 -21 13z" />
    <path d="M1649 253 l-14 -18 18 14 c16 13 21 21 13 21 -2 0 -10 -8 -17 -17z" />
    <path d="M607 89 c7 -7 15 -10 18 -7 3 3 -2 9 -12 12 l-18 7 12 -12z" />
    <path d="M1380 90 l-15 -10 12 0 c6 0 15 5 18 10 8 12 4 12 -15 0z" />
  </g>
  <g transform="translate(0.000000,200.000000) scale(0.100000,-0.100000)" fill="#5da175" stroke="none">
    <path d="M1143 863 c4 -3 10 -3 14 0 3 4 0 7 -7 7 -7 0 -10 -3 -7 -7z" />
    <path d="M1131 684 l1 -19 5 13 c3 7 2 16 -1 19 -3 4 -6 -2 -5 -13z" />
    <path d="M1370 680 c0 -7 3 -10 7 -7 3 4 3 10 0 14 -4 3 -7 0 -7 -7z" />
    <path d="M1021 624 l1 -19 5 13 c3 7 2 16 -1 19 -3 4 -6 -2 -5 -13z" />
    <path d="M1233 563 c4 -3 10 -3 14 0 3 4 0 7 -7 7 -7 0 -10 -3 -7 -7z" />
    <path d="M1263 563 c4 -3 10 -3 14 0 3 4 0 7 -7 7 -7 0 -10 -3 -7 -7z" />
  </g>
  <g transform="translate(0.000000,200.000000) scale(0.100000,-0.100000)" fill="#a1c9af" stroke="none">
    <path d="M1470 730 c0 -7 3 -10 7 -7 3 4 3 10 0 14 -4 3 -7 0 -7 -7z" />
    <path d="M1341 684 l1 -19 5 13 c3 7 2 16 -1 19 -3 4 -6 -2 -5 -13z" />
    <path d="M1020 660 c0 -7 3 -10 7 -7 3 4 3 10 0 14 -4 3 -7 0 -7 -7z" />
    <path d="M1130 630 c0 -7 3 -10 7 -7 3 4 3 10 0 14 -4 3 -7 0 -7 -7z" />
    <path d="M1175 560 c3 -5 8 -10 11 -10 3 0 2 5 -1 10 -3 6 -8 10 -11 10 -3 0
-2 -4 1 -10z" />
    <path d="M1075 510 c3 -5 8 -10 11 -10 3 0 2 5 -1 10 -3 6 -8 10 -11 10 -3 0
-2 -4 1 -10z" />
    <path d="M1333 443 c4 -3 10 -3 14 0 3 4 0 7 -7 7 -7 0 -10 -3 -7 -7z" />
  </g>
  <g transform="translate(0.000000,200.000000) scale(0.100000,-0.100000)" fill="#529b6b" stroke="none">
    <path d="M918 1983 c7 -3 16 -2 19 1 4 3 -2 6 -13 5 l-19 -1 13 -5z" />
    <path d="M1068 1983 c7 -3 16 -2 19 1 4 3 -2 6 -13 5 l-19 -1 13 -5z" />
    <path d="M11 1074 l1 -19 5 13 c3 7 2 16 -1 19 -3 4 -6 -2 -5 -13z" />
    <path d="M1981 1074 l1 -19 5 13 c3 7 2 16 -1 19 -3 4 -6 -2 -5 -13z" />
    <path d="M11 924 l1 -19 5 13 c3 7 2 16 -1 19 -3 4 -6 -2 -5 -13z" />
    <path d="M1981 924 l1 -19 5 13 c3 7 2 16 -1 19 -3 4 -6 -2 -5 -13z" />
    <path d="M1154 868 l-7 -11 11 7 c12 7 16 16 8 16 -3 0 -8 -5 -12 -12z" />
    <path d="M1335 700 c3 -5 8 -10 11 -10 3 0 2 5 -1 10 -3 6 -8 10 -11 10 -3 0
-2 -4 1 -10z" />
    <path d="M1394 478 l-7 -11 11 7 c12 7 16 16 8 16 -3 0 -8 -5 -12 -12z" />
    <path d="M1143 453 c4 -3 10 -3 14 0 3 4 0 7 -7 7 -7 0 -10 -3 -7 -7z" />
    <path d="M918 13 c7 -3 16 -2 19 1 4 3 -2 6 -13 5 l-19 -1 13 -5z" />
    <path d="M1068 13 c7 -3 16 -2 19 1 4 3 -2 6 -13 5 l-19 -1 13 -5z" />
  </g>
  <g transform="translate(0.000000,200.000000) scale(0.100000,-0.100000)" fill="#41915d" stroke="none">
    <path d="M1440 790 c0 -7 3 -10 7 -7 3 4 3 10 0 14 -4 3 -7 0 -7 -7z" />
  </g>
  <g transform="translate(0.000000,200.000000) scale(0.100000,-0.100000)" fill="#398d56" stroke="none">
    <path d="M833 1973 c4 -3 10 -3 14 0 3 4 0 7 -7 7 -7 0 -10 -3 -7 -7z" />
    <path d="M1153 1973 c4 -3 10 -3 14 0 3 4 0 7 -7 7 -7 0 -10 -3 -7 -7z" />
    <path d="M20 1160 c0 -7 3 -10 7 -7 3 4 3 10 0 14 -4 3 -7 0 -7 -7z" />
    <path d="M1970 1160 c0 -7 3 -10 7 -7 3 4 3 10 0 14 -4 3 -7 0 -7 -7z" />
    <path d="M20 840 c0 -7 3 -10 7 -7 3 4 3 10 0 14 -4 3 -7 0 -7 -7z" />
    <path d="M1970 840 c0 -7 3 -10 7 -7 3 4 3 10 0 14 -4 3 -7 0 -7 -7z" />
    <path d="M1020 700 c0 -7 3 -10 7 -7 3 4 3 10 0 14 -4 3 -7 0 -7 -7z" />
    <path d="M1130 640 c0 -7 3 -10 7 -7 3 4 3 10 0 14 -4 3 -7 0 -7 -7z" />
    <path d="M1440 530 c0 -7 3 -10 7 -7 3 4 3 10 0 14 -4 3 -7 0 -7 -7z" />
    <path d="M833 23 c4 -3 10 -3 14 0 3 4 0 7 -7 7 -7 0 -10 -3 -7 -7z" />
    <path d="M1153 23 c4 -3 10 -3 14 0 3 4 0 7 -7 7 -7 0 -10 -3 -7 -7z" />
  </g>
  <g transform="translate(0.000000,200.000000) scale(0.100000,-0.100000)" fill="#7eb491" stroke="none">
    <path d="M294 1698 l-7 -11 11 7 c12 7 16 16 8 16 -3 0 -8 -5 -12 -12z" />
    <path d="M1695 1700 c3 -5 8 -10 11 -10 3 0 2 5 -1 10 -3 6 -8 10 -11 10 -3 0
-2 -4 1 -10z" />
    <path d="M1445 780 c3 -5 8 -10 11 -10 3 0 2 5 -1 10 -3 6 -8 10 -11 10 -3 0
-2 -4 1 -10z" />
    <path d="M1020 690 c0 -7 3 -10 7 -7 3 4 3 10 0 14 -4 3 -7 0 -7 -7z" />
    <path d="M295 300 c3 -5 8 -10 11 -10 3 0 2 5 -1 10 -3 6 -8 10 -11 10 -3 0
-2 -4 1 -10z" />
    <path d="M1694 298 l-7 -11 11 7 c7 4 12 9 12 12 0 8 -9 4 -16 -8z" />
  </g>
  <g transform="translate(0.000000,200.000000) scale(0.100000,-0.100000)" fill="#65a67c" stroke="none" />
  <g transform="translate(0.000000,200.000000) scale(0.100000,-0.100000)" fill="#d3e6d9" stroke="none" />
</svg>